<svg width="90" height="105" viewBox="0 0 90 105" fill="none" xmlns="http://www.w3.org/2000/svg">
<path d="M0 28.1945H14.6441V105H0V28.1945ZM14.6441 64.6772L12.6102 53.2935C12.6102 50.9162 12.8814 48.1731 13.4237 45.0643C14.0565 41.9555 15.2768 38.9839 17.0847 36.1494C18.9831 33.2234 21.7401 30.8004 25.3559 28.8803C29.0621 26.9601 37.4435 27.0001 43.5 27.0001C43.5 27.0001 40.5 31.3506 40 33C39.5 34.6494 40 40.8126 40 40.8126C34.6667 40.8126 30.1017 41.544 26.3051 43.007C22.5085 44.47 19.6158 46.9387 17.6271 50.4133C15.6384 53.7964 14.6441 58.551 14.6441 64.6772Z" fill="black"/>
<path d="M71.8584 38.2334C71.9731 38.7 72.0527 39 72.0527 39H89.21C88.5097 44.5938 86.7237 49.2441 83.8496 52.9502C80.2624 57.7006 75.1711 61.1809 68.5762 63.3936L88.7998 105H70.0498L53.1348 66.5254C51.829 66.5834 50.3854 66.6133 48.75 66.6133V52.2139C54.7498 52.2139 54.9 51.8001 59.0996 50.7002C63.3995 49.6002 66.6496 47.6999 68.8496 45C70.3286 43.1995 71.3305 40.9437 71.8584 38.2334Z" fill="black"/>
<path d="M43.7998 0C53.0998 0 61.1502 1.05039 67.9502 3.15039C74.85 5.25037 80.1497 8.70016 83.8496 13.5C86.8107 17.2403 88.6178 22.0737 89.2715 28H72.0527C72.0527 28 71.9919 28.2284 71.9004 28.5967C71.3841 25.8138 70.3672 23.5315 68.8496 21.75C66.6496 18.9501 63.3995 17.0498 59.0996 16.0498C54.8968 14.95 5.9998 16.0498 0 16.0498V0H43.7998Z" fill="black"/>
</svg>
