<svg width="662" height="200" viewBox="0 0 662 200" fill="none" xmlns="http://www.w3.org/2000/svg">
<path d="M0 67.66H24.5089V195.99H0V67.66ZM24.5089 128.617L21.1049 109.596C21.1049 105.624 21.5588 101.041 22.4665 95.8468C23.5255 90.6525 25.568 85.6873 28.5938 80.9513C31.7708 76.0626 36.3852 72.0141 42.4368 68.8058C48.6396 65.5976 62.667 65.6643 72.8034 65.6643C72.8034 65.6643 67.7825 73.6853 66.9457 76.4411C66.1089 79.1969 66.9457 88.7428 66.9457 88.7428C58.0196 88.7428 50.3795 89.965 44.0253 92.4094C37.6711 94.8538 32.8299 98.9787 29.5015 104.784C26.1731 110.437 24.5089 118.381 24.5089 128.617Z" fill="black"/>
<path d="M120.265 84.4334C120.457 85.2131 120.59 85.7143 120.59 85.7143H149.306C148.133 95.0607 145.144 102.831 140.334 109.023C134.331 116.96 125.809 122.775 114.772 126.472L148.619 195.99H117.238L88.9286 131.705C86.7432 131.802 84.3271 131.852 81.59 131.852V107.793C91.6316 107.793 91.883 107.101 98.9116 105.264C106.108 103.426 111.548 100.25 115.23 95.7394C117.705 92.731 119.382 88.9619 120.265 84.4334Z" fill="black"/>
<path d="M73.3052 20.5514C88.8701 20.5514 102.344 22.3064 113.724 25.8152C125.272 29.3239 134.142 35.088 140.334 43.1078C145.29 49.3573 148.314 57.4331 149.409 67.335H120.59C120.59 67.335 120.489 67.7166 120.336 68.332C119.472 63.6822 117.77 59.8689 115.23 56.8923C111.548 52.2141 106.108 49.0389 98.9116 47.3681C91.8776 45.5305 10.0415 47.3681 0 47.3681V20.5514H73.3052Z" fill="black"/>
<path d="M228.871 200C219.666 200 211.381 198.329 204.017 194.987C196.82 191.479 191.046 186.466 186.695 179.95C182.511 173.434 180.419 165.497 180.419 156.14C180.419 145.113 183.096 136.424 188.452 130.075C193.808 123.726 200.837 119.048 209.54 116.04C218.41 113.033 228.034 111.111 238.41 110.276C248.954 109.273 259.331 108.772 269.54 108.772V131.328C248.787 130.66 233.389 132.414 223.348 136.591C213.473 140.602 208.536 146.784 208.536 155.138C208.536 162.155 210.879 167.419 215.565 170.927C220.251 174.436 226.695 176.19 234.896 176.19C241.423 176.19 247.281 174.77 252.469 171.93C257.825 169.089 262.009 165.079 265.021 159.9C268.034 154.553 269.54 148.12 269.54 140.602V123.81H296.653V195.99H269.54V180.451C265.356 186.633 259.833 191.479 252.971 194.987C246.109 198.329 238.076 200 228.871 200ZM176.904 107.519C176.904 97.995 179.247 88.9724 183.933 80.4511C188.787 71.9298 195.732 64.9958 204.77 59.6491C213.975 54.3024 225.189 51.6291 238.41 51.6291C256.486 51.6291 270.377 56.7251 280.084 66.9173C289.791 77.1094 295.23 91.061 296.402 108.772H269.54C268.871 98.7469 266.109 90.8939 261.256 85.213C256.569 79.3651 248.954 76.4411 238.41 76.4411C230.377 76.4411 223.933 77.8613 219.08 80.7018C214.226 83.5422 210.712 87.3851 208.536 92.2306C206.527 96.9089 205.523 102.005 205.523 107.519H176.904Z" fill="black"/>
<path d="M305.759 55.6391H334.881L376.805 195.99H350.948L305.759 55.6391ZM433.793 55.6391L388.605 195.99H362.747L404.672 55.6391H433.793Z" fill="black"/>
<path d="M458.86 55.6391H485.973V195.99H458.86V55.6391ZM450.827 6.76692L480.952 0L487.731 30.5764L457.605 37.3434L450.827 6.76692Z" fill="black"/>
<path d="M529.938 8.02005H561.068V38.8471C561.068 46.533 558.892 52.2974 554.54 56.1404C550.189 59.9833 544.331 61.9048 536.967 61.9048V48.6216C540.314 48.6216 542.574 47.7861 543.745 46.1153C545.084 44.2774 545.754 41.8546 545.754 38.8471H529.938V8.02005Z" fill="black"/>
<path d="M571.121 151.629C571.958 160.15 575.64 166.5 582.167 170.677C588.694 174.854 596.477 176.942 605.515 176.942C614.385 176.942 621.498 175.272 626.854 171.93C632.377 168.421 635.138 163.158 635.138 156.14C635.138 151.796 633.464 148.538 630.117 146.366C626.937 144.027 622.669 142.189 617.314 140.852C612.125 139.515 606.351 138.346 599.992 137.343C593.799 136.341 587.523 135.088 581.163 133.584C574.803 132.08 568.945 129.908 563.59 127.068C558.402 124.06 554.217 120.05 551.037 115.038C547.858 110.025 546.268 103.509 546.268 95.4887C546.268 87.9699 548.611 80.8688 553.297 74.1855C557.983 67.335 564.678 61.9048 573.381 57.8947C582.084 53.7176 592.125 51.6291 603.506 51.6291C613.715 51.6291 623.004 53.7176 631.372 57.8947C639.908 61.9048 646.77 67.5021 651.958 74.6867C657.146 81.8713 659.741 90.2256 659.741 99.7494H633.883C633.213 91.2281 629.866 84.9624 623.841 80.9524C617.983 76.7753 610.87 74.6867 602.502 74.6867C592.795 74.6867 585.431 76.6917 580.41 80.7018C575.556 84.5447 573.13 89.4737 573.13 95.4887C573.13 100 574.72 103.509 577.899 106.015C581.079 108.521 585.263 110.526 590.452 112.03C595.807 113.367 601.665 114.536 608.025 115.539C614.385 116.374 620.661 117.544 626.854 119.048C633.213 120.551 638.987 122.723 644.176 125.564C649.531 128.237 653.799 132.08 656.979 137.093C660.326 141.938 662 148.287 662 156.14C662 164.996 659.573 172.682 654.72 179.198C650.033 185.714 643.423 190.81 634.887 194.486C626.351 198.162 616.142 200 604.259 200C593.213 200 583.171 197.911 574.134 193.734C565.263 189.39 558.151 183.626 552.795 176.441C547.607 169.089 544.845 160.819 544.51 151.629H571.121Z" fill="black"/>
</svg>
